# xmcd
#
# Track frame offsets:
#	150
#	17023
#	26320
#	43073
#	54058
#	74892
#	104078
#	115792
#	126208
#	147121
#	163973
#	184126
#	197116
#	216934
#	226880
#	247305
#	265385
#	283046
#	293118
#
# Disc length: 4095 seconds
#
# Revision: 1
# Processed by: cddbd v1.5.1PL2 Copyright (c) Steve Scherf et al.
# Submitted via: EasyCDDAExtractor 9.0.0.1
#
DISCID=2c0ffd13
DTITLE=The Admiral's Lame Dog - Sentimental Dragon
DYEAR=1900
DGENRE=
TTITLE0=Sentimental Dragon
TTITLE1=My Animal Cries
TTITLE2=Reader of Love
TTITLE3=Fool of You
TTITLE4=Child
TTITLE5=Give Me
TTITLE6=Roily Water Blues
TTITLE7=Foreign Girl
TTITLE8=I've Got the Bules
TTITLE9=Suzie Q
TTITLE10=I Saw Her in the Mob
TTITLE11=Shadow
TTITLE12=Fly, Fly (Something Happens)
TTITLE13=Long Show
TTITLE14=In the Big City
TTITLE15=Are You Really Know
TTITLE16=Tell Me Woman, Tell Me Man
TTITLE17=Suicide Song
TTITLE18=Stilla-Buks-Terrah
EXTD=
EXTT0=
EXTT1=
EXTT2=
EXTT3=
EXTT4=
EXTT5=
EXTT6=
EXTT7=
EXTT8=
EXTT9=
EXTT10=
EXTT11=
EXTT12=
EXTT13=
EXTT14=
EXTT15=
EXTT16=
EXTT17=
EXTT18=
PLAYORDER=
